<svg xmlns="http://www.w3.org/2000/svg" viewBox="0 0 61.4 61">
  <path fill="#999" d="M9.4 0C8.8 0 8 0 7.4.2c-.8.2-1.3 1-1 1.8 0 .7.7 1.2 1.4 1.2H8C8.6 3 9 3 9.5 3H13c.7 0 1.4-.7 1.4-1.5S13.6 0 12.8 0zm8.4 0c-1 0-1.5.7-1.5 1.5S17 3 17.8 3h5c.8 0 1.5-.7 1.5-1.5S23.6 0 22.8 0zm10 0c-1 0-1.5.7-1.5 1.5S27 3 27.8 3h5c.8 0 1.5-.7 1.5-1.5S33.6 0 32.8 0zm10 0c-1 0-1.5.7-1.5 1.5S37 3 37.8 3h5c.8 0 1.5-.7 1.5-1.5S43.6 0 42.8 0zm10 0c-1 0-1.5.7-1.5 1.5S47 3 47.8 3h5c.7 0 1.3-.4 1.4-1.2C54.4 1 53.8.3 53 0h-1.6zM57 2.3c-.3 0-.7.2-1 .5-.5.6-.5 1.5 0 2 1 1 1.7 2.3 2 3.6 0 .8.6 1.3 1.4 1.3h.2c.8 0 1.4-1 1.2-1.7-.3-2-1.2-3.8-2.6-5.2-.3-.3-.7-.5-1-.5zm-53.6.4c-.4 0-.7 0-1 .5C1 4.7.2 6.5 0 8.5 0 9.3.5 10 1.4 10c1 0 1.6-.3 1.6-1 0-1.3.7-2.6 1.6-3.6.6-.7.5-1.6 0-2.2-.4-.2-.8-.4-1.2-.3zm56.5 9c-1 0-1.8.7-1.8 1.5v5c0 .8.7 1.5 1.5 1.5.7 0 1.4-.7 1.4-1.5v-5c0-.8-.6-1.5-1.4-1.5zM2 12c-1 0-1.6.8-1.6 1.6v5c0 1 .7 1.6 1.5 1.6.5 0 1.2-.7 1.2-1.5v-5c0-1-.7-1.6-1.5-1.6zm58 9.7c-1 0-1.6.7-1.6 1.5v5c0 .8.7 1.5 1.5 1.5.5 0 1.2-.7 1.2-1.5v-5c0-.8-.7-1.5-1.5-1.5zm-58 .5c-1 0-1.6.6-1.6 1.5v5c0 .8.7 1.5 1.5 1.5.5 0 1.2-.7 1.2-1.5v-5c0-1-.7-1.5-1.5-1.5zm58 9.5c-1 0-1.6.7-1.6 1.5v5c0 .8.7 1.5 1.5 1.5.5 0 1.2-.7 1.2-1.5v-5c0-.8-.7-1.5-1.5-1.5zm-58 .5c-1 0-1.6.6-1.6 1.5v5c0 .8.7 1.5 1.5 1.5.5 0 1.2-.7 1.2-1.5v-5c0-1-.7-1.5-1.5-1.5zm58 9.5c-1 0-1.6.7-1.6 1.5v5c0 1 .7 1.5 1.5 1.5.5 0 1.2-.6 1.2-1.5v-5c0-.8-.7-1.5-1.5-1.5zm-58 .5c-1 0-1.6.6-1.6 1.5v5c0 .8.7 1.5 1.5 1.5.5 0 1.2-.7 1.2-1.5v-5c0-1-.7-1.5-1.5-1.5zM59.3 50c-.8 0-1.5.7-1.5 1.5 0 1.4-.5 2.7-1.3 3.8-.5.7-.3 1.7.4 2 0 .3.4.4 1 .4s1-.2 1-.6c1-1.3 1.7-3.3 1.7-5.3 0-.8-.7-1.5-1.6-1.5zM1.6 52.2h-.2c-.8.2-1.3 1-1 1.8.4 2 1.5 3.7 3 5l1 .3c.5 0 1-.2 1.2-.6.5-.7.4-1.6-.2-2-1-1-1.8-2-2.2-3.5-.2-.7-1-1-1.6-1zm52.2 5.4h-.3c-.7.3-1.4.4-2 .4H49c-.8 0-1.5.7-1.5 1.5 0 1 .7 1.5 1.5 1.5h2.4c1 0 2 0 3-.4.8-.3 1.3-1.2 1-2-.2-.6-1-1-1.6-1zm-45 .4c-.7 0-1.2.7-1.3 1.4 0 1 .6 1.6 1.4 1.6h5c1 0 1.3-.6 1.3-1.5 0-.8-.6-1.5-1.5-1.5H9zM19 58c-.8 0-1.5.7-1.5 1.5 0 1 .7 1.5 1.5 1.5h5c1 0 1.5-.6 1.5-1.5 0-.8-.6-1.5-1.5-1.5zm10 0c-.8 0-1.5.7-1.5 1.5 0 1 .7 1.5 1.5 1.5h5c1 0 1.5-.6 1.5-1.5 0-.8-.6-1.5-1.5-1.5zm10 0c-.8 0-1.5.7-1.5 1.5 0 1 .7 1.5 1.5 1.5h5c1 0 1.5-.6 1.5-1.5 0-.8-.6-1.5-1.5-1.5z"/>
</svg>
